<mxfile host="app.diagrams.net" agent="Mozilla/5.0 (X11; Linux x86_64) AppleWebKit/537.36 (KHTML, like Gecko) Chrome/127.0.0.0 Safari/537.36" version="24.7.7">
  <diagram name="Page-1" id="NkkOo4ZWANbX8L9rQ3j4">
    <mxGraphModel dx="1434" dy="776" grid="1" gridSize="10" guides="1" tooltips="1" connect="1" arrows="1" fold="1" page="1" pageScale="1" pageWidth="850" pageHeight="1100" math="0" shadow="0">
      <root>
        <mxCell id="0" />
        <mxCell id="1" parent="0" />
        <mxCell id="uYGm-B8dJiQchOk2_2rw-2" style="edgeStyle=orthogonalEdgeStyle;rounded=0;orthogonalLoop=1;jettySize=auto;html=1;exitX=0.5;exitY=1;exitDx=0;exitDy=0;" edge="1" parent="1" source="Qm6euWS13BV0DkDbtk02-1" target="uYGm-B8dJiQchOk2_2rw-1">
          <mxGeometry relative="1" as="geometry" />
        </mxCell>
        <mxCell id="Qm6euWS13BV0DkDbtk02-1" value="Start" style="rounded=1;whiteSpace=wrap;html=1;" parent="1" vertex="1">
          <mxGeometry x="365" y="30" width="120" height="60" as="geometry" />
        </mxCell>
        <mxCell id="uYGm-B8dJiQchOk2_2rw-8" style="edgeStyle=orthogonalEdgeStyle;rounded=0;orthogonalLoop=1;jettySize=auto;html=1;exitX=0.5;exitY=1;exitDx=0;exitDy=0;" edge="1" parent="1" source="uYGm-B8dJiQchOk2_2rw-1" target="uYGm-B8dJiQchOk2_2rw-3">
          <mxGeometry relative="1" as="geometry" />
        </mxCell>
        <mxCell id="uYGm-B8dJiQchOk2_2rw-1" value="Create a chessboard surface" style="rounded=0;whiteSpace=wrap;html=1;" vertex="1" parent="1">
          <mxGeometry x="365" y="120" width="120" height="60" as="geometry" />
        </mxCell>
        <mxCell id="uYGm-B8dJiQchOk2_2rw-6" style="edgeStyle=orthogonalEdgeStyle;rounded=0;orthogonalLoop=1;jettySize=auto;html=1;exitX=0.5;exitY=1;exitDx=0;exitDy=0;" edge="1" parent="1" source="uYGm-B8dJiQchOk2_2rw-3" target="uYGm-B8dJiQchOk2_2rw-4">
          <mxGeometry relative="1" as="geometry" />
        </mxCell>
        <mxCell id="uYGm-B8dJiQchOk2_2rw-3" value="Iterate over every rank" style="rounded=0;whiteSpace=wrap;html=1;" vertex="1" parent="1">
          <mxGeometry x="365" y="200" width="120" height="60" as="geometry" />
        </mxCell>
        <mxCell id="uYGm-B8dJiQchOk2_2rw-7" style="edgeStyle=orthogonalEdgeStyle;rounded=0;orthogonalLoop=1;jettySize=auto;html=1;exitX=0.5;exitY=1;exitDx=0;exitDy=0;entryX=0.5;entryY=0;entryDx=0;entryDy=0;" edge="1" parent="1" source="uYGm-B8dJiQchOk2_2rw-4" target="uYGm-B8dJiQchOk2_2rw-5">
          <mxGeometry relative="1" as="geometry" />
        </mxCell>
        <mxCell id="uYGm-B8dJiQchOk2_2rw-4" value="Iterate over every file" style="rounded=0;whiteSpace=wrap;html=1;" vertex="1" parent="1">
          <mxGeometry x="365" y="280" width="120" height="60" as="geometry" />
        </mxCell>
        <mxCell id="uYGm-B8dJiQchOk2_2rw-14" style="edgeStyle=orthogonalEdgeStyle;rounded=0;orthogonalLoop=1;jettySize=auto;html=1;exitX=0.5;exitY=1;exitDx=0;exitDy=0;entryX=0.5;entryY=0;entryDx=0;entryDy=0;" edge="1" parent="1" source="uYGm-B8dJiQchOk2_2rw-5" target="uYGm-B8dJiQchOk2_2rw-9">
          <mxGeometry relative="1" as="geometry" />
        </mxCell>
        <mxCell id="uYGm-B8dJiQchOk2_2rw-5" value="Draw a tile of the right colour" style="rounded=0;whiteSpace=wrap;html=1;" vertex="1" parent="1">
          <mxGeometry x="365" y="360" width="120" height="60" as="geometry" />
        </mxCell>
        <mxCell id="uYGm-B8dJiQchOk2_2rw-10" style="edgeStyle=orthogonalEdgeStyle;rounded=0;orthogonalLoop=1;jettySize=auto;html=1;exitX=0;exitY=0.5;exitDx=0;exitDy=0;entryX=0;entryY=0.5;entryDx=0;entryDy=0;" edge="1" parent="1" source="uYGm-B8dJiQchOk2_2rw-9" target="uYGm-B8dJiQchOk2_2rw-3">
          <mxGeometry relative="1" as="geometry" />
        </mxCell>
        <mxCell id="uYGm-B8dJiQchOk2_2rw-12" value="Yes" style="edgeLabel;html=1;align=center;verticalAlign=middle;resizable=0;points=[];" vertex="1" connectable="0" parent="uYGm-B8dJiQchOk2_2rw-10">
          <mxGeometry x="-0.875" y="-1" relative="1" as="geometry">
            <mxPoint as="offset" />
          </mxGeometry>
        </mxCell>
        <mxCell id="uYGm-B8dJiQchOk2_2rw-11" style="edgeStyle=orthogonalEdgeStyle;rounded=0;orthogonalLoop=1;jettySize=auto;html=1;exitX=1;exitY=0.5;exitDx=0;exitDy=0;entryX=1;entryY=0.5;entryDx=0;entryDy=0;" edge="1" parent="1" source="uYGm-B8dJiQchOk2_2rw-9" target="uYGm-B8dJiQchOk2_2rw-4">
          <mxGeometry relative="1" as="geometry">
            <Array as="points">
              <mxPoint x="510" y="490" />
              <mxPoint x="510" y="310" />
            </Array>
          </mxGeometry>
        </mxCell>
        <mxCell id="uYGm-B8dJiQchOk2_2rw-13" value="No" style="edgeLabel;html=1;align=center;verticalAlign=middle;resizable=0;points=[];" vertex="1" connectable="0" parent="uYGm-B8dJiQchOk2_2rw-11">
          <mxGeometry x="-0.7059" y="2" relative="1" as="geometry">
            <mxPoint as="offset" />
          </mxGeometry>
        </mxCell>
        <mxCell id="uYGm-B8dJiQchOk2_2rw-21" style="edgeStyle=orthogonalEdgeStyle;rounded=0;orthogonalLoop=1;jettySize=auto;html=1;exitX=0.5;exitY=1;exitDx=0;exitDy=0;" edge="1" parent="1" source="uYGm-B8dJiQchOk2_2rw-9" target="uYGm-B8dJiQchOk2_2rw-16">
          <mxGeometry relative="1" as="geometry" />
        </mxCell>
        <mxCell id="uYGm-B8dJiQchOk2_2rw-9" value="Have we iterated over every file?" style="rhombus;whiteSpace=wrap;html=1;" vertex="1" parent="1">
          <mxGeometry x="385" y="450" width="80" height="80" as="geometry" />
        </mxCell>
        <mxCell id="uYGm-B8dJiQchOk2_2rw-17" style="edgeStyle=orthogonalEdgeStyle;rounded=0;orthogonalLoop=1;jettySize=auto;html=1;exitX=1;exitY=0.5;exitDx=0;exitDy=0;entryX=1;entryY=0.5;entryDx=0;entryDy=0;" edge="1" parent="1" source="uYGm-B8dJiQchOk2_2rw-16" target="uYGm-B8dJiQchOk2_2rw-3">
          <mxGeometry relative="1" as="geometry">
            <Array as="points">
              <mxPoint x="530" y="580" />
              <mxPoint x="530" y="230" />
            </Array>
          </mxGeometry>
        </mxCell>
        <mxCell id="uYGm-B8dJiQchOk2_2rw-25" value="No" style="edgeLabel;html=1;align=center;verticalAlign=middle;resizable=0;points=[];" vertex="1" connectable="0" parent="uYGm-B8dJiQchOk2_2rw-17">
          <mxGeometry x="-0.9" y="-2" relative="1" as="geometry">
            <mxPoint as="offset" />
          </mxGeometry>
        </mxCell>
        <mxCell id="uYGm-B8dJiQchOk2_2rw-23" style="edgeStyle=orthogonalEdgeStyle;rounded=0;orthogonalLoop=1;jettySize=auto;html=1;exitX=0.5;exitY=1;exitDx=0;exitDy=0;entryX=0.5;entryY=0;entryDx=0;entryDy=0;" edge="1" parent="1" source="uYGm-B8dJiQchOk2_2rw-16" target="uYGm-B8dJiQchOk2_2rw-22">
          <mxGeometry relative="1" as="geometry" />
        </mxCell>
        <mxCell id="uYGm-B8dJiQchOk2_2rw-24" value="Yes" style="edgeLabel;html=1;align=center;verticalAlign=middle;resizable=0;points=[];" vertex="1" connectable="0" parent="uYGm-B8dJiQchOk2_2rw-23">
          <mxGeometry x="-0.5" y="2" relative="1" as="geometry">
            <mxPoint as="offset" />
          </mxGeometry>
        </mxCell>
        <mxCell id="uYGm-B8dJiQchOk2_2rw-16" value="Have we iterated over every rank?" style="rhombus;whiteSpace=wrap;html=1;" vertex="1" parent="1">
          <mxGeometry x="385" y="540" width="80" height="80" as="geometry" />
        </mxCell>
        <mxCell id="uYGm-B8dJiQchOk2_2rw-22" value="End" style="rounded=1;whiteSpace=wrap;html=1;" vertex="1" parent="1">
          <mxGeometry x="365" y="640" width="120" height="60" as="geometry" />
        </mxCell>
      </root>
    </mxGraphModel>
  </diagram>
</mxfile>
